<svg id="Layer_1" enable-background="new 0 0 512.002 512.002" height="512" viewBox="0 0 512.002 512.002" width="512" xmlns="http://www.w3.org/2000/svg"><g><g clip-rule="evenodd" fill-rule="evenodd"><path d="m401.999 10c55.229 0 100 44.772 100 100 0 55.229-44.771 100-100 100-19.133 0-37.009-5.377-52.206-14.697-10.707 2.873-21.413 5.745-32.121 8.615-5.715 1.613-11.188-3.616-9.622-9.493 2.88-10.748 5.761-21.486 8.642-32.225-9.318-15.194-14.692-33.069-14.692-52.2 0-55.228 44.771-100 99.999-100z" fill="#ffc144"/><g><path d="m212.797 360.133c-5.663-2.142-11.487-3.949-17.447-5.397l-.057-.032c-11.109 3.37-22.878 5.183-35.05 5.183-12.16 0-23.918-1.81-35.018-5.173-5.991 1.451-11.845 3.266-17.536 5.419l11.915 49.933h81.277z" fill="#ffdcd5"/><path d="m200.882 410.066h-81.277l21.939 91.936h37.399z" fill="#ff5a58"/><path d="m141.544 502.002-21.938-91.936-11.916-49.933c-10.745 4.064-20.911 9.335-30.328 15.645l-2.074 61.87 26.646 11.687-31.321 26.179 31.788 26.489h39.143z" fill="#6d91ac"/><path d="m200.882 410.066-21.938 91.936h39.143l31.788-26.489-31.321-26.179 26.646-11.687-2.074-61.87c-9.418-6.309-19.583-11.58-30.328-15.644z" fill="#6d91ac"/><path d="m218.554 449.334 31.321 26.179-31.788 26.489h91.75v-1.872c0-39.819-15.768-76.131-41.369-103.004-7.627-8.006-16.127-15.175-25.342-21.349l2.074 61.87z" fill="#8aa7bd"/><path d="m70.613 475.513 31.321-26.179-26.646-11.687 2.074-61.87c-9.215 6.174-17.715 13.342-25.342 21.349-25.601 26.874-41.369 63.185-41.369 103.004v1.872h91.75z" fill="#8aa7bd"/><path d="m141.546 182.244h-83.788c0 10.285-8.415 18.699-18.699 18.699l-5.034.001c-6.916 0-13.155 3.044-17.444 7.858-3.684 4.135-5.93 9.576-5.93 15.516 0 8.622 4.731 16.192 11.724 20.243 3.435 1.99 7.415 3.131 11.65 3.131h5.034c4.381 56.896 47.903 101.898 101.888 110.654 6.288 1.014 12.734 1.541 19.297 1.541 1.504 0 3.002-.027 4.493-.083.535-.02 1.07-.044 1.606-.071 59.715-3.062 110.324-50.181 115.087-112.041h5.034c4.234 0 8.215-1.141 11.65-3.131 6.994-4.051 11.724-11.622 11.724-20.243 0-6.963-3.085-13.239-7.955-17.531-4.123-3.633-9.525-5.843-15.419-5.843-1.678 0-3.356.001-5.034-.003-10.284 0-18.698-8.413-18.699-18.697h-8.989c-30.854 0-56.097-25.244-56.097-56.097-.002 30.853-25.245 56.097-56.099 56.097z" fill="#ffdcd5"/><path d="m57.758 182.244h83.788c30.854 0 56.097-25.244 56.097-56.097l2.203-49.243c-2.563 28.522-26.712 51.07-55.872 51.07h-126.215c-4.605 13.214-7.108 27.413-7.108 42.197 0 13.464 2.08 26.442 5.93 38.632 4.289-4.814 10.528-7.858 17.444-7.858l5.034-.001c10.284-.001 18.699-8.415 18.699-18.7z" fill="#d1a184"/><path d="m17.759 127.973h126.215c29.16 0 53.308-22.548 55.872-51.069l.225-5.028.625-13.967c-18.345-10.133-39.435-15.907-61.876-15.907-56.003 0-103.615 35.917-121.061 85.971z" fill="#c68a65"/><path d="m200.071 71.876c0 30.854 25.244 56.097 56.097 56.097h46.787c-15.515-41.272-55.538-70.503-102.26-70.064z" fill="#c68a65"/><path d="m256.168 127.973c-30.854 0-56.097-25.244-56.097-56.097 0 1.694-.076 3.371-.225 5.028l-2.203 49.242c0 30.854 25.244 56.097 56.097 56.097h8.989c.001 10.284 8.415 18.697 18.699 18.697 1.678.004 3.356.003 5.034.003 5.893 0 11.296 2.21 15.417 5.844 5.127-12.581 7.956-26.344 7.956-40.768 0-13.395-2.434-26.216-6.881-38.047h-46.786z" fill="#d1a184"/><path d="m281.429 247.693c-4.763 61.86-55.372 108.979-115.087 112.042 10.009-.501 19.708-2.227 28.952-5.031l.057.032c5.96 1.448 11.784 3.254 17.447 5.397 10.745 4.064 20.911 9.335 30.328 15.645 14.071 9.427 26.473 21.172 36.647 34.678 61.988-30.718 9.473-92.621 18.34-165.894-3.435 1.99-7.415 3.131-11.65 3.131z" fill="#c68a65"/><path d="m39.058 247.693c4.763 61.86 55.372 108.979 115.087 112.042-10.009-.501-19.708-2.227-28.952-5.031l-.057.032c-5.96 1.448-11.784 3.254-17.447 5.397-10.745 4.064-20.911 9.335-30.328 15.645-14.071 9.427-26.473 21.172-36.647 34.678-61.988-30.718-9.472-92.621-18.34-165.894 3.435 1.99 7.415 3.131 11.65 3.131z" fill="#c68a65"/><g fill="#cff5fd"><path d="m146.219 229.279c0-6.072-4.967-11.039-11.039-11.039h-44.772c-6.072 0-11.039 4.967-11.039 11.039v11.868c0 12.599 10.308 22.906 22.906 22.906h21.037c12.599 0 22.906-10.308 22.906-22.906v-11.868z"/><path d="m174.268 229.279v11.868c0 12.599 10.308 22.906 22.906 22.906h21.037c12.599 0 22.907-10.308 22.907-22.906v-11.868c0-6.072-4.967-11.039-11.039-11.039h-44.771c-6.072 0-11.04 4.967-11.04 11.039z"/></g></g></g><g><path d="m176.807 292.86c-4.424 4.425-10.307 6.861-16.563 6.861-6.257 0-12.14-2.437-16.563-6.861-3.904-3.905-10.236-3.906-14.142 0-3.905 3.905-3.906 10.237 0 14.142 8.202 8.202 19.106 12.719 30.706 12.719 11.599 0 22.504-4.517 30.706-12.719 3.905-3.905 3.905-10.237 0-14.143s-10.239-3.904-14.144.001z"/><path d="m401.999 0c-54.417 0-99.724 39.723-108.468 91.693-2.702-3.323-5.591-6.525-8.678-9.584-21.94-21.735-50.836-33.82-81.625-34.196-19.748-10.417-41.96-15.911-64.41-15.911-76.185 0-138.168 61.982-138.168 138.169 0 12.466 1.664 24.786 4.94 36.697-3.13 5.081-4.94 11.058-4.94 17.451 0 10.385 4.773 19.672 12.235 25.797 2.072 24.016-2.614 47.423-6.786 68.201-4.008 19.962-7.793 38.818-5.296 55.729 2.467 16.702 10.859 29.728 25.507 39.594-16.629 25.692-25.66 55.865-25.66 86.49v1.872c0 5.523 4.477 10 10 10h299.186c5.523 0 10-4.477 10-10v-1.872c0-30.625-9.031-60.8-25.66-86.491 14.711-9.908 23.113-23.004 25.539-39.82 2.431-16.851-1.338-35.625-5.329-55.501-4.172-20.778-8.858-44.186-6.786-68.203 7.461-6.126 12.235-15.411 12.235-25.796 0-3.598-.579-7.062-1.638-10.311.709-.106 1.416-.25 2.116-.444l28.034-7.518c16.343 9.143 34.798 13.956 53.651 13.956 60.654 0 110-49.346 110-110s-49.344-110.002-109.999-110.002zm-168.698 381.18 1.677 50.031-20.441 8.966c-3.17 1.39-5.396 4.321-5.884 7.748s.831 6.863 3.487 9.083l22.127 18.494-19.802 16.5h-22.855l28.185-118.11c4.661 2.192 9.165 4.63 13.506 7.288zm-83.863 110.822-17.166-71.936h55.942l-17.166 71.936zm-43.417 0-19.802-16.5 22.127-18.494c2.656-2.22 3.975-5.656 3.487-9.083s-2.714-6.358-5.884-7.748l-20.441-8.966 1.677-50.033c4.34-2.658 8.844-5.096 13.505-7.288l28.185 118.112zm89.394-126.933c1.867.488 3.716 1.012 5.548 1.571l-7.977 33.426h-65.486l-7.977-33.427c1.81-.552 3.638-1.071 5.483-1.554 11.34 3.175 23.126 4.81 35.092 4.809 2.244 0 4.5-.058 6.755-.173 9.837-.505 19.398-2.095 28.562-4.652zm-29.586-15.322c-59.797 3.07-112.199-43.059-116.8-102.822-.401-5.21-4.746-9.232-9.971-9.232h-5.034c-7.375 0-13.374-6-13.374-13.374 0-7.375 6-13.375 13.377-13.375l1.869-.001 33.473 23.53v6.673c0 18.145 14.762 32.906 32.906 32.906h21.037c16.767 0 30.635-12.608 32.646-28.84h8.57c2.011 16.232 15.879 28.84 32.646 28.84h21.037c18.145 0 32.906-14.762 32.906-32.906v-6.674l33.471-23.53 1.873.001c7.375 0 13.374 6 13.374 13.375 0 7.374-6 13.374-13.374 13.374h-5.034c-5.225 0-9.569 4.022-9.971 9.232-4.291 55.75-49.701 99.954-105.627 102.823zm90.339-211.773h39.438c.525 2.002 1.111 3.986 1.748 5.954 1.638 7.161 2.483 14.56 2.483 22.092 0 9.006-1.227 17.839-3.611 26.384-3.09-.947-6.367-1.46-9.763-1.46l-5.013-.003c-.007 0-.014 0-.021 0-4.796 0-8.699-3.902-8.699-8.698 0-5.522-4.477-10-10-10h-8.989c-25.369 0-46.014-20.601-46.093-45.952l.409-9.15c12.062 12.815 29.166 20.833 48.111 20.833zm-58.525 23.098c11.687 18.703 32.464 31.172 56.097 31.172h.787c1.498 4.016 3.876 7.603 6.891 10.541l-16.498 11.598c-3.807-3.794-9.055-6.143-14.841-6.143h-44.771c-10.21 0-18.737 7.313-20.637 16.974h-8.854c-1.9-9.661-10.428-16.974-20.637-16.974h-44.772c-5.786 0-11.033 2.35-14.841 6.143l-16.497-11.597c3.015-2.938 5.393-6.526 6.891-10.542h75.585c23.632 0 44.41-12.469 56.097-31.172zm33.474 68.207v11.868c0 7.117-5.79 12.906-12.906 12.906h-21.037c-7.117 0-12.907-5.79-12.907-12.906v-11.868c0-.554.486-1.04 1.04-1.04h44.771c.554.001 1.039.487 1.039 1.04zm-94.899 0v11.868c0 7.117-5.79 12.906-12.906 12.906h-21.037c-7.117 0-12.906-5.79-12.906-12.906v-11.868c0-.554.485-1.04 1.039-1.04h44.771c.554.001 1.039.487 1.039 1.04zm151.101-111.305h-31.151c-25.37 0-46.016-20.602-46.094-45.955l.168-3.748c22.823 1.95 44.05 11.716 60.536 28.048 6.581 6.519 12.119 13.805 16.541 21.655zm-148.5-65.972c17.899 0 35.608 4.091 51.6 11.855l-.544 12.172c-2.107 23.479-21.883 41.945-45.901 41.945h-30.956c-5.523 0-10 4.477-10 10s4.477 10 10 10h30.956c16.824 0 32.197-6.323 43.878-16.712l-.199 4.439c-.003.077.003.151.001.227-.002.074-.011.145-.011.219 0 25.418-20.679 46.098-46.097 46.098h-83.788c-5.523 0-10 4.477-10 10 0 4.796-3.902 8.699-8.702 8.699l-5.031.001c-3.923 0-7.687.686-11.187 1.935-1.45-7.446-2.187-15.043-2.187-22.708-.001-65.16 53.009-118.17 118.168-118.17zm-113.111 270.252c3.096-15.424 6.45-32.213 7.418-50.048 6.639 24.927 20.547 47.414 40.437 64.873 7.333 6.437 15.24 11.975 23.576 16.577-22.582 9.827-42.878 24.88-58.916 43.898-23.256-15.129-20.186-37.091-12.515-75.3zm40.953 74.25-1.368 40.808c-.137 4.089 2.231 7.85 5.978 9.493l11.868 5.206-18.939 15.83c-2.275 1.902-3.589 4.715-3.587 7.68s1.32 5.777 3.598 7.675l10.568 8.806h-53.895c2.151-37.482 19.097-71.451 45.777-95.498zm179.047 95.498 10.568-8.806c2.278-1.898 3.596-4.71 3.598-7.675s-1.312-5.778-3.587-7.68l-18.939-15.83 11.868-5.206c3.747-1.643 6.115-5.403 5.978-9.493l-1.368-40.804c26.679 24.048 43.626 58.017 45.777 95.493h-53.895zm36.557-94.446c-16.036-19.016-36.332-34.07-58.913-43.897 31.111-17.105 54.642-46.405 64.006-81.491.965 17.849 4.321 34.652 7.42 50.086 7.682 38.26 10.75 60.175-12.513 75.302zm119.734-197.555c-16.629 0-32.874-4.572-46.978-13.222-1.587-.974-3.399-1.476-5.229-1.476-.867 0-1.738.113-2.591.341l-28.494 7.642c2.547-9.503 5.095-18.999 7.643-28.496.712-2.651.302-5.479-1.134-7.819-3.577-5.833-6.445-12.037-8.592-18.479-.694-2.924-1.498-5.813-2.411-8.664-1.456-6.469-2.213-13.115-2.213-19.828 0-49.626 40.374-90 90-90s90 40.374 90 90-40.375 90.001-90.001 90.001z"/><path d="m68.021 137.974c5.523 0 10-4.477 10-10s-4.477-10-10-10h-.007c-5.523 0-9.996 4.477-9.996 10s4.48 10 10.003 10z"/><path d="m441.999 100h-80c-5.523 0-10 4.477-10 10s4.477 10 10 10h80c5.523 0 10-4.477 10-10s-4.477-10-10-10z"/><path d="m441.999 59.999h-80c-5.523 0-10 4.477-10 10s4.477 10 10 10h80c5.523 0 10-4.477 10-10s-4.477-10-10-10z"/><path d="m441.999 140.002h-80c-5.523 0-10 4.477-10 10s4.477 10 10 10h80c5.523 0 10-4.477 10-10s-4.477-10-10-10z"/></g></g></svg>