<svg id="Layer_1" height="512" viewBox="0 0 64 64" width="512" xmlns="http://www.w3.org/2000/svg" data-name="Layer 1"><path d="m11 47v-4h-1a4 4 0 0 0 0 8h1z" fill="#ce7c29"/><path d="m23 29v-4h-6v4l-6 14h18z" fill="#a5e7f9"/><path d="m56 43h-45v8h45a8.944 8.944 0 0 1 0-8z" fill="#f9cf98"/><path d="m8 61h2v-10h-2a5 5 0 0 0 0 10z" fill="#cc3c29"/><path d="m61 51h-51v10h51a9.716 9.716 0 0 1 0-10z" fill="#f7aa9a"/><path d="m55 31a12 12 0 0 0 -12 12h2a12 12 0 0 0 12-12z" fill="#7ec116"/><path d="m38.485 24.615-1.414 1.414a12 12 0 0 0 0 16.971l1.414-1.414a12 12 0 0 0 0-16.971z" fill="#7ec116"/><g fill="#c0d83a"><path d="m29.947 8.569c1.119-1.939.863-4.182-.572-5.01s-3.5.071-4.625 2.01-.863 4.183.572 5.011c.062.036.132.051.2.081 1.42.649 3.354-.237 4.425-2.092z"/><path d="m31.974 15.93c-.228-1.353-1.894-2.2-3.723-1.893-1.739.292-2.981 1.524-2.905 2.808a1.9 1.9 0 0 0 .006.2c.228 1.353 1.895 2.2 3.723 1.893s3.125-1.655 2.899-3.008z"/><path d="m18.455 16.652c-1.572-.984-3.436-.838-4.164.326s-.043 2.9 1.529 3.887c1.494.935 3.241.838 4.036-.173a1.7 1.7 0 0 0 .128-.153c.728-1.163.043-2.904-1.529-3.887z"/></g><circle cx="50" cy="22" fill="#a5e7f9" r="4"/><circle cx="59" cy="17" fill="#a5e7f9" r="2"/><circle cx="50.843" cy="20.945" fill="#fff" opacity=".6" r="1.055"/><circle cx="59.484" cy="17.791" fill="#fff" opacity=".6" r="1"/><circle cx="51.898" cy="22.363" fill="#fff" opacity=".6" r=".584"/><path d="m45 41h-1.82a11.986 11.986 0 0 0 -.18 2h2a12 12 0 0 0 12-12h-.18a11.994 11.994 0 0 1 -11.82 10z" fill="#70a514"/><path d="m38.485 39.586-1.414 1.414a11.95 11.95 0 0 1 -3.471-7.485 11.968 11.968 0 0 0 3.471 9.485l1.414-1.414a11.966 11.966 0 0 0 3.467-9.486 11.945 11.945 0 0 1 -3.467 7.486z" fill="#70a514"/><path d="m11.857 41-.857 2h18l-.857-2z" fill="#30c8fc" opacity=".5"/><path d="m24.053 41.71a1 1 0 0 1 -.944-.668l-3.835-10.871v-3.171a1 1 0 0 1 2 0v2.829l3.726 10.548a1 1 0 0 1 -.943 1.333z" fill="#fff" opacity=".6"/><path d="m10 59h-2a5 5 0 0 1 -4.9-4 5 5 0 0 0 4.9 6h53a9.679 9.679 0 0 1 -.889-2z" fill="#cc3c29" opacity=".5"/><path d="m59.743 54.5h-49.743v2.5h49.682a9.733 9.733 0 0 1 .061-2.5z" fill="#cc3c29" opacity=".5"/><path d="m11 48v3h45a8.936 8.936 0 0 1 -.887-3z" fill="#ce7c29" opacity=".5"/><path d="m8 62h53a1 1 0 0 0 .857-1.515 8.7 8.7 0 0 1 0-8.97 1 1 0 0 0 -.857-1.515h-4.342a7.973 7.973 0 0 1 .237-6.553 1 1 0 0 0 -.895-1.447h-4.1a12.988 12.988 0 0 0 6.1-11 1 1 0 0 0 -1-1h-2a13.009 13.009 0 0 0 -12.949 12h-2.594a13.006 13.006 0 0 0 -.265-18.092 1 1 0 0 0 -1.414 0l-1.414 1.414a13.012 13.012 0 0 0 -1.42 16.678h-5.285l-5.659-13.2v-3.8a1 1 0 0 0 -1-1h-1.134c.5-2.045 1.086-4.121 1.771-6.155h.922a3.35 3.35 0 0 0 1.6 1.659 4.781 4.781 0 0 0 2.167.5 5.448 5.448 0 0 0 .914-.077 5.009 5.009 0 0 0 2.775-1.4 3.216 3.216 0 0 0 .944-2.756 3.216 3.216 0 0 0 -1.794-2.295 5.229 5.229 0 0 0 -5.855.985 3.526 3.526 0 0 0 -.836 1.391h-.122c.519-1.379 1.087-2.724 1.709-4.015a3.452 3.452 0 0 0 .444.055 4.138 4.138 0 0 0 1.645-.355 5.835 5.835 0 0 0 2.661-2.461 5.833 5.833 0 0 0 .8-3.534 3.678 3.678 0 0 0 -1.736-2.843c-1.941-1.119-4.574-.077-5.992 2.377-1.234 2.134-1.037 4.624.354 5.924a57.482 57.482 0 0 0 -3.037 7.836 3.746 3.746 0 0 0 -.187-.674 5.014 5.014 0 0 0 -2.028-2.362c-2.071-1.295-4.506-1.014-5.542.643s-.225 3.97 1.846 5.265a5.108 5.108 0 0 0 2.685.813 3.582 3.582 0 0 0 1.864-.512l.362.321c-.145.558-.286 1.113-.419 1.666h-2.781a1 1 0 0 0 -1 1v3.8l-5.659 13.204h-.341a4.974 4.974 0 0 0 -3.757 8.264 6 6 0 0 0 1.757 11.736zm20.417-46.977a3.441 3.441 0 0 1 .577-.049 2.812 2.812 0 0 1 1.265.278 1.272 1.272 0 0 1 .728.844 1.272 1.272 0 0 1 -.411 1.035 3.242 3.242 0 0 1 -3.509.591c-.023-.012-.053-.032-.078-.046a.971.971 0 0 0 -.283-1.783c.015-.015.031-.037.044-.051a3.048 3.048 0 0 1 1.667-.819zm-2.8-8.954a3.329 3.329 0 0 1 2.571-1.82 1.366 1.366 0 0 1 .689.175 1.744 1.744 0 0 1 .75 1.337 3.881 3.881 0 0 1 -.546 2.308 3.883 3.883 0 0 1 -1.727 1.631c-.066.029-.151.058-.237.086q.357-.642.735-1.257a1 1 0 0 0 -1.7-1.048c-.311.507-.609 1.03-.9 1.561a3.449 3.449 0 0 1 .364-2.973zm-9.267 13.948c-1.065-.666-1.63-1.839-1.211-2.509a1.309 1.309 0 0 1 1.161-.508 3.154 3.154 0 0 1 1.628.5 3.042 3.042 0 0 1 1.226 1.394c.01.024.019.058.028.086a.971.971 0 0 0 -.982 1.52 3.018 3.018 0 0 1 -1.85-.483zm43.039 39.983h-48.389v-2h37a1 1 0 0 0 0-2h-37v-4h48.389a10.685 10.685 0 0 0 0 8zm-4.868-16a10.018 10.018 0 0 0 .011 6h-42.532v-2h14a1 1 0 0 0 0-2h-14v-2zm.479-12h.955a11.01 11.01 0 0 1 -10.289 9.968l7-6.22a1 1 0 0 0 -1.328-1.5l-7.038 6.262a11.01 11.01 0 0 1 10.7-8.51zm-17.222-5.264.675-.674a11.007 11.007 0 0 1 -.19 14.283l.737-10.274a1 1 0 1 0 -2-.142l-.743 10.441a11.01 11.01 0 0 1 1.521-13.634zm-15.778-.736v3a.989.989 0 0 0 .081.394l5.403 12.606h-8.419a115.713 115.713 0 0 1 2.335-16zm-4.081 3.394a.989.989 0 0 0 .081-.394v-3h1.324a114.2 114.2 0 0 0 -2.268 16h-4.54zm-7.919 14.606v6a3 3 0 0 1 0-6zm-2 8h1v8h-1a4 4 0 0 1 0-8z"/><path d="m45 22a5 5 0 1 0 5-5 5.006 5.006 0 0 0 -5 5zm8 0a3 3 0 1 1 -3-3 3 3 0 0 1 3 3z"/><path d="m59 14a3 3 0 1 0 3 3 3 3 0 0 0 -3-3zm0 4a1 1 0 1 1 1-1 1 1 0 0 1 -1 1z"/><path d="m32 46h-2a1 1 0 0 0 0 2h2a1 1 0 0 0 0-2z"/><path d="m54 56h-2a1 1 0 0 0 0 2h2a1 1 0 0 0 0-2z"/></svg>