<?xml version="1.0" encoding="iso-8859-1"?>
<!-- Generator: Adobe Illustrator 19.0.0, SVG Export Plug-In . SVG Version: 6.00 Build 0)  -->
<svg version="1.1" id="Capa_1" xmlns="http://www.w3.org/2000/svg" xmlns:xlink="http://www.w3.org/1999/xlink" x="0px" y="0px"
	 viewBox="0 0 496.485 496.485" style="enable-background:new 0 0 496.485 496.485;" xml:space="preserve">
<circle style="fill:#2EA2DB;" cx="249.018" cy="248.145" r="247.467"/>
<polygon style="fill:#E1E6E9;" points="248.242,7.661 7.758,115.491 248.242,223.321 488.727,115.491 "/>
<path style="fill:#193651;" d="M248.242,231.079c-0.776,0-2.327,0-3.103-0.776L4.655,122.473C1.552,120.921,0,118.594,0,115.491
	s1.552-6.206,4.655-6.982L245.139,0.679c2.327-0.776,4.655-0.776,6.206,0l240.485,107.83c3.103,1.552,4.655,3.879,4.655,6.982
	s-1.551,6.206-4.655,6.982l-240.485,107.83C250.57,231.079,249.018,231.079,248.242,231.079z M26.376,115.491l221.867,99.297
	l221.867-99.297L248.242,16.194L26.376,115.491z"/>
<path style="fill:#FFFFFF;" d="M390.982,123.248c-89.212-41.115-196.267-41.115-285.479,0v123.345l0,0
	c89.212,41.115,196.267,41.115,285.479,0V123.248L390.982,123.248z"/>
<path style="fill:#193651;" d="M248.242,285.382c-50.424,0-100.848-10.861-145.842-31.03c-3.103-1.552-4.655-3.879-4.655-6.982
	V124.024c0-3.103,1.552-5.43,4.655-6.982c44.994-20.17,95.418-31.03,145.842-31.03s100.848,10.861,145.842,31.03
	c3.103,1.552,4.655,3.879,4.655,6.982V247.37c0,3.103-1.552,5.43-4.655,6.982C349.091,274.521,298.667,285.382,248.242,285.382z
	 M113.261,241.939c41.891,18.618,88.436,27.927,134.982,27.927s93.091-9.309,134.982-27.927V128.679
	c-41.891-18.618-88.436-27.927-134.982-27.927s-93.091,9.309-134.982,27.927V241.939z"/>
<path style="fill:#E1E6E9;" d="M248.242,246.594c-38.788,0-76.8-6.982-111.709-20.17v-82.23
	c34.909-13.188,72.921-20.17,111.709-20.17s76.8,6.982,111.709,20.17v82.23C325.042,239.612,287.03,246.594,248.242,246.594
	L248.242,246.594z"/>
<path style="fill:#193651;" d="M48.097,218.667c-4.655,0-7.758-3.103-7.758-7.758v-77.576c0-4.655,3.103-7.758,7.758-7.758
	s7.758,3.103,7.758,7.758v77.576C55.855,215.564,51.976,218.667,48.097,218.667z"/>
<ellipse style="fill:#FFFFFF;" cx="48.097" cy="229.527" rx="20.17" ry="18.618"/>
<g>
	<path style="fill:#193651;" d="M48.097,255.903c-15.515,0-27.927-11.636-27.927-26.376s12.412-26.376,27.927-26.376
		s27.927,11.636,27.927,26.376S63.612,255.903,48.097,255.903z M48.097,218.667c-6.982,0-12.412,4.655-12.412,10.861
		s5.43,10.861,12.412,10.861s12.412-4.655,12.412-10.861C60.509,224.097,55.079,218.667,48.097,218.667z"/>
	<rect x="193.939" y="177.552" style="fill:#193651;" width="15.515" height="15.515"/>
	<rect x="240.485" y="177.552" style="fill:#193651;" width="15.515" height="15.515"/>
	<rect x="287.03" y="177.552" style="fill:#193651;" width="15.515" height="15.515"/>
</g>
<path style="fill:#FFFFFF;" d="M488.727,453.721v-58.958c0-19.394-15.515-34.909-34.909-34.909H378.57
	c-35.685,0-64.388,28.703-64.388,64.388l0,0c0,35.685,28.703,64.388,64.388,64.388h75.249
	C473.212,488.63,488.727,473.115,488.727,453.721z"/>
<path style="fill:#193651;" d="M453.818,352.097H378.57c-39.564,0-72.145,32.582-72.145,72.145s32.582,72.145,72.145,72.145h75.249
	c23.273,0,42.667-19.394,42.667-42.667v-58.958C496.485,371.491,477.091,352.097,453.818,352.097z M480.97,453.721
	c0,14.739-12.412,27.152-27.152,27.152H378.57c-31.03,0-56.63-25.6-56.63-56.63s25.6-56.63,56.63-56.63h75.249
	c14.739,0,27.152,12.412,27.152,27.152V453.721z"/>
<path style="fill:#FDBF5E;" d="M378.57,488.63h27.927v-64.388h-92.315l0,0C314.182,459.927,342.885,488.63,378.57,488.63z"/>
<path style="fill:#193651;" d="M407.273,496.388h-27.927c-39.564,0-72.145-32.582-72.145-72.145c0-4.655,3.103-7.758,7.758-7.758
	h92.315c4.655,0,7.758,3.103,7.758,7.758v64.388C415.03,493.285,411.152,496.388,407.273,496.388z M322.715,432
	c3.879,27.151,27.152,48.873,55.855,48.873h20.17V432H322.715z"/>
<path style="fill:#F16051;" d="M407.273,359.855h-27.927c-35.685,0-64.388,28.703-64.388,64.388l0,0h92.315V359.855z"/>
<path style="fill:#193651;" d="M407.273,432h-93.091c-4.655,0-7.758-3.103-7.758-7.758c0-39.564,32.582-72.145,72.145-72.145h27.927
	c4.655,0,7.758,3.103,7.758,7.758v64.388C415.03,428.897,411.152,432,407.273,432z M322.715,416.485h76.8v-48.873h-20.17
	C349.867,367.612,326.594,389.333,322.715,416.485z"/>
<path style="fill:#FFFFFF;" d="M336.679,424.242c0,7.758,6.206,13.188,13.188,13.188h20.945c7.758,0,13.188-6.206,13.188-13.188
	c0-7.758-6.206-13.188-13.188-13.188h-20.945C342.885,411.055,336.679,416.485,336.679,424.242z"/>
<g>
	<path style="fill:#193651;" d="M370.812,445.964h-20.945c-11.636,0-20.945-9.309-20.945-20.945s9.309-20.945,20.945-20.945h20.945
		c11.636,0,20.945,9.309,20.945,20.945C392.533,435.879,383.224,445.964,370.812,445.964z M350.642,418.812
		c-3.103,0-5.43,2.327-5.43,5.43c0,3.103,2.327,5.43,5.43,5.43h20.945c3.103,0,5.43-2.327,5.43-5.43c0-3.103-2.327-5.43-5.43-5.43
		H350.642z"/>
	<path style="fill:#193651;" d="M314.182,432H39.564C17.842,432,0,414.158,0,392.436c0-21.721,17.842-39.564,39.564-39.564h176.097
		c13.188,0,24.048-10.861,24.048-24.048v-49.648c0-4.655,3.103-7.758,7.758-7.758c4.655,0,7.758,3.103,7.758,7.758v49.648
		c0,21.721-17.842,39.564-39.564,39.564H39.564c-13.188,0-24.048,10.861-24.048,24.048s10.861,24.048,24.048,24.048h274.618
		c4.655,0,7.758,3.103,7.758,7.758C321.939,428.897,318.836,432,314.182,432z"/>
</g>
<g>
</g>
<g>
</g>
<g>
</g>
<g>
</g>
<g>
</g>
<g>
</g>
<g>
</g>
<g>
</g>
<g>
</g>
<g>
</g>
<g>
</g>
<g>
</g>
<g>
</g>
<g>
</g>
<g>
</g>
</svg>
