<svg id="Layer_1" enable-background="new 0 0 512.002 512.002" height="512" viewBox="0 0 512.002 512.002" width="512" xmlns="http://www.w3.org/2000/svg"><g><g clip-rule="evenodd" fill-rule="evenodd"><path d="m108.754 200.003c18.929 0 34.897-13.326 38.986-31.059.663-2.877 1.014-5.87 1.014-8.94v-20c0-22-18-40-40-40s-40 18-40 40v20c0 3.071.351 6.063 1.014 8.94 4.089 17.733 20.057 31.059 38.986 31.059z" fill="#ffdcd5"/><path d="m147.74 168.944c-4.089 17.734-20.056 31.059-38.986 31.059-18.929 0-34.897-13.326-38.985-31.06-30.118 14.594-51.015 45.506-51.015 81.062l40-.003v70.002h100v-70.002l40 .003c0-35.556-20.897-66.467-51.014-81.061z" fill="#fff"/><path d="m58.754 320.005v-70.002l-40 .003v70c0 11 9 20 20 20h20z" fill="#ffdcd5"/><path d="m158.754 250.002v70.002 20.001h20c11 0 20-9 20-20v-70z" fill="#ffdcd5"/><path d="m158.754 320.005h-100v20 140l100-.001v-139.999z" fill="#6d91ac"/><path d="m198.754 250.005v28.034h303.247v-258.039c0-5.5-4.5-10-10-10h-373.247c-5.5 0-10 4.5-10 10v80.004c22 0 40 18 40 40v20c0 3.071-.351 6.064-1.014 8.94 12.916 6.259 24.136 15.519 32.74 26.859 11.457 15.102 18.274 33.895 18.274 54.202z" fill="#6d91ac"/><path d="m502.002 278.039h-303.248v40.001h293.247c5.5 0 10-4.5 10-10v-30.001z" fill="#c68a65"/><path d="m87.314 407.003c0-15.463-12.651-28.114-28.114-28.114s-28.114 12.651-28.114 28.114v14.057c0 7.187 2.733 13.766 7.211 18.751 5.157 5.74 12.627 9.364 20.903 9.364s15.747-3.624 20.903-9.364c4.478-4.984 7.211-11.564 7.211-18.751z" fill="#ffdcd5"/><path d="m80.103 439.811c-5.157 5.74-12.627 9.364-20.903 9.364s-15.746-3.624-20.902-9.365c-16.684 7.895-28.298 24.91-28.298 44.507v17.685h98.4v-17.685c0-19.597-11.614-36.612-28.297-44.506z" fill="#ffc144"/><path d="m185.715 407.003c0-15.463-12.651-28.114-28.114-28.114s-28.114 12.651-28.114 28.114v14.057c0 7.187 2.733 13.766 7.211 18.751 5.157 5.74 12.627 9.364 20.903 9.364s15.747-3.624 20.903-9.364c4.478-4.984 7.211-11.564 7.211-18.751z" fill="#ffdcd5"/><path d="m178.504 439.811c-5.157 5.74-12.627 9.364-20.903 9.364s-15.746-3.624-20.902-9.365c-16.684 7.895-28.298 24.91-28.298 44.507v17.685h98.4v-17.685c0-19.597-11.614-36.612-28.297-44.506z" fill="#ffc144"/><path d="m284.115 407.003c0-15.463-12.651-28.114-28.114-28.114s-28.114 12.651-28.114 28.114v14.057c0 7.187 2.733 13.766 7.211 18.751 5.157 5.74 12.627 9.364 20.903 9.364s15.747-3.624 20.903-9.364c4.478-4.984 7.211-11.564 7.211-18.751z" fill="#ffdcd5"/><path d="m276.904 439.811c-5.157 5.74-12.627 9.364-20.903 9.364s-15.746-3.624-20.902-9.365c-16.684 7.895-28.298 24.91-28.298 44.507v17.685h98.4v-17.685c0-19.597-11.614-36.612-28.297-44.506z" fill="#ffc144"/><path d="m382.515 407.003c0-15.463-12.651-28.114-28.114-28.114s-28.114 12.651-28.114 28.114v14.057c0 7.187 2.733 13.766 7.211 18.751 5.157 5.74 12.627 9.364 20.903 9.364s15.746-3.624 20.903-9.364c4.478-4.984 7.211-11.564 7.211-18.751z" fill="#ffdcd5"/><path d="m375.304 439.811c-5.157 5.74-12.627 9.364-20.903 9.364s-15.746-3.624-20.902-9.365c-16.684 7.895-28.298 24.91-28.298 44.507v17.685h98.401v-17.685c-.001-19.597-11.615-36.612-28.298-44.506z" fill="#ffc144"/><path d="m480.915 407.003c0-15.463-12.651-28.114-28.114-28.114s-28.114 12.651-28.114 28.114v14.057c0 7.187 2.733 13.766 7.211 18.751 5.157 5.74 12.627 9.364 20.903 9.364s15.746-3.624 20.903-9.364c4.478-4.984 7.211-11.564 7.211-18.751z" fill="#ffdcd5"/><path d="m473.704 439.811c-5.157 5.74-12.627 9.364-20.903 9.364s-15.747-3.624-20.902-9.365c-16.684 7.895-28.298 24.91-28.298 44.507v17.685h98.4v-17.685c.001-19.597-11.614-36.612-28.297-44.506z" fill="#ffc144"/></g><g><path d="m178.128 347.862c12.937 0 23.971-8.282 28.091-19.822h285.782c11.028 0 20-8.972 20-20v-288.04c0-11.028-8.972-20-20-20h-373.248c-11.027 0-19.999 8.972-19.999 20v71.016c-22.597 4.639-39.644 24.682-39.644 48.63v19.822c0 1.122.051 2.232.125 3.335-13.901 8.06-25.699 19.378-34.346 33.032-10.03 15.838-15.332 34.107-15.332 52.83v69.375c0 16.444 13.378 29.822 29.821 29.822h9.822v22.368c-16.18 4.405-28.114 19.218-28.114 36.774v14.058c0 5.494 1.178 10.716 3.279 15.439-15.229 11.052-24.365 28.618-24.365 47.816v17.685c0 5.523 4.478 10 10 10h492.001c5.522 0 10-4.477 10-10v-17.685c0-19.192-9.138-36.761-24.366-47.817 2.102-4.723 3.28-9.945 3.28-15.44v-14.058c0-21.016-17.098-38.114-38.114-38.114s-38.114 17.098-38.114 38.114v14.058c0 5.503 1.182 10.732 3.289 15.461-5.689 4.13-10.548 9.147-14.376 14.842-3.828-5.694-8.687-10.711-14.375-14.842 2.108-4.729 3.29-9.958 3.29-15.461v-14.058c0-21.016-17.098-38.114-38.114-38.114s-38.114 17.098-38.114 38.114v14.058c0 5.503 1.182 10.732 3.29 15.461-5.689 4.13-10.548 9.147-14.376 14.842-3.828-5.694-8.687-10.712-14.375-14.842 2.108-4.729 3.29-9.958 3.29-15.461v-14.058c0-21.016-17.098-38.114-38.114-38.114s-38.114 17.098-38.114 38.114v14.058c0 5.503 1.182 10.732 3.29 15.461-5.689 4.13-10.548 9.147-14.376 14.842-3.828-5.694-8.687-10.712-14.375-14.842 2.108-4.729 3.29-9.958 3.29-15.461v-14.058c0-17.299-11.588-31.934-27.407-36.573v-22.569h9.818zm-19.82-109.199c-.001 0-.001 0 0 0-2.653 0-5.196 1.054-7.072 2.929-1.875 1.875-2.929 4.419-2.929 7.071v59.377h-29.553v-99.942c14.651-3.009 26.962-12.496 33.812-25.321 19.262 12.799 31.882 33.095 34.756 55.887zm19.82 89.199h-9.821v-69.199l19.643.001v59.376c0 5.416-4.407 9.822-9.822 9.822zm313.873-307.862v248.039h-97.029c-5.522 0-10 4.477-10 10s4.478 10 10 10h97.029v20.001h-284.051v-20.001h97.022c5.522 0 10-4.477 10-10s-4.478-10-10-10h-97.022v-19.374c0-35.695-18.895-68.077-49.678-85.863.074-1.104.125-2.213.125-3.335v-19.822c0-23.948-17.046-43.99-39.642-48.63l-.002-71.015zm-412.89 119.646c0-16.345 13.298-29.642 29.643-29.642h.001c16.345 0 29.642 13.297 29.642 29.642v19.822c0 16.345-13.298 29.642-29.643 29.642s-29.643-13.297-29.643-29.642zm-14.173 43.127c6.85 12.827 19.163 22.316 33.816 25.325v99.942h-29.554v-59.377c0-2.652-1.054-5.196-2.929-7.071-1.876-1.875-4.42-2.929-7.072-2.929l-29.016.001c2.871-22.806 15.487-43.095 34.755-55.891zm-25.56 145.089c-5.415 0-9.821-4.406-9.821-9.822v-59.376l19.643-.001v69.199zm1.707 79.141c0-9.988 8.126-18.114 18.114-18.114s18.114 8.126 18.114 18.114v14.058c0 9.988-8.126 18.114-18.114 18.114s-18.114-8.126-18.114-18.114zm57.315 84.999h-78.4v-7.685c0-12.849 6.546-24.992 17.046-32.271 6.249 4.48 13.895 7.128 22.153 7.128 8.264 0 15.916-2.652 22.167-7.138 10.624 7.286 17.034 19.222 17.034 32.281zm9.999-40.638c-3.828-5.694-8.687-10.711-14.375-14.842 2.108-4.729 3.29-9.958 3.29-15.461v-14.058c0-17.556-11.935-32.369-28.114-36.774v-42.19h79.107v42c-16.539 4.16-28.821 19.152-28.821 36.963v14.058c0 5.503 1.182 10.732 3.29 15.461-5.69 4.132-10.549 9.149-14.377 14.843zm326.288-44.361c0-9.988 8.126-18.114 18.114-18.114s18.114 8.126 18.114 18.114v14.058c0 9.988-8.126 18.114-18.114 18.114s-18.114-8.126-18.114-18.114zm-21.085 77.314c-.001-12.848 6.545-24.992 17.046-32.27 6.249 4.48 13.895 7.128 22.153 7.128 8.264 0 15.916-2.652 22.167-7.138 10.624 7.285 17.033 19.221 17.033 32.281v7.685h-78.399zm-77.315-77.314c0-9.988 8.126-18.114 18.114-18.114s18.114 8.126 18.114 18.114v14.058c0 9.988-8.126 18.114-18.114 18.114s-18.114-8.126-18.114-18.114zm-4.039 45.044c6.249 4.48 13.895 7.128 22.153 7.128 8.264 0 15.916-2.652 22.167-7.138 10.625 7.285 17.034 19.221 17.034 32.281v7.684h-78.401v-7.685c0-12.848 6.545-24.992 17.047-32.27zm-94.362-45.044c0-9.988 8.126-18.114 18.114-18.114s18.114 8.126 18.114 18.114v14.058c0 9.988-8.126 18.114-18.114 18.114s-18.114-8.126-18.114-18.114zm-4.038 45.044c6.248 4.48 13.895 7.128 22.153 7.128 8.264 0 15.916-2.652 22.167-7.138 10.624 7.285 17.033 19.22 17.033 32.281v7.685h-78.4v-7.685c-.001-12.849 6.545-24.993 17.047-32.271zm-37.048 39.955h-78.4v-7.685c0-12.849 6.546-24.992 17.047-32.271 6.248 4.48 13.895 7.128 22.153 7.128 8.264 0 15.916-2.652 22.167-7.138 10.624 7.285 17.033 19.22 17.033 32.281zm-21.086-84.999v14.058c0 9.988-8.126 18.114-18.114 18.114s-18.114-8.126-18.114-18.114v-14.058c0-9.988 8.126-18.114 18.114-18.114s18.114 8.126 18.114 18.114z"/><path d="m229.844 168.741c5.522 0 10-4.477 10-10v-20.001h20v20.001c0 5.523 4.478 10 10 10s10-4.477 10-10v-60c0-16.542-13.458-30-30-30s-30 13.458-30 30v60c0 5.523 4.478 10 10 10zm10-69.999c0-5.514 4.486-10 10-10s10 4.486 10 10v19.999h-20z"/><path d="m409.847 168.742c16.542 0 30-13.458 30-30 0-5.523-4.478-10-10-10s-10 4.477-10 10c0 5.514-4.486 10-10 10s-10-4.486-10-10v-40c0-5.514 4.486-10 10-10s10 4.486 10 10c0 5.523 4.478 10 10 10s10-4.477 10-10c0-16.542-13.458-30-30-30s-30 13.458-30 30v40c0 16.542 13.458 30 30 30z"/><path d="m309.846 168.741h20c16.542 0 29.999-13.458 29.999-30 0-7.676-2.897-14.688-7.657-20 4.76-5.312 7.657-12.324 7.657-20 0-16.542-13.457-30-29.999-30h-20c-5.522 0-10 4.477-10 10v80c0 5.523 4.478 10 10 10zm20-20h-10v-20h10c5.514 0 9.999 4.486 9.999 10s-4.485 10-9.999 10zm0-60c5.514 0 9.999 4.486 9.999 10s-4.485 10-9.999 10h-10v-20z"/><path d="m349.976 268.039h-.008c-5.522 0-9.996 4.477-9.996 10s4.481 10 10.004 10 10-4.477 10-10-4.477-10-10-10z"/></g></g></svg>